<svg xmlns="http://www.w3.org/2000/svg" viewBox="0 0 24 24" fill="currentColor">
  <path d="M12 0C5.373 0 0 5.373 0 12c0 5.302 3.438 9.8 8.207 11.387.6.11.793-.26.793-.577 0-.284-.01-1.23-.015-2.234-3.348.726-4.055-1.62-4.055-1.62-.547-1.387-1.336-1.756-1.336-1.756-1.092-.745.083-.73.083-.73 1.207.085 1.84 1.24 1.84 1.24 1.07 1.832 2.807 1.303 3.492.998.108-.776.42-1.303.764-1.604-2.676-.306-5.491-1.338-5.491-5.942 0-1.314.465-2.384 1.235-3.222-.124-.307-.535-1.526.117-3.178 0 0 1.007-.322 3.3 1.23.958-.267 1.983-.4 3.002-.405 1.02.005 2.045.138 3.006.405 2.29-1.552 3.295-1.23 3.295-1.23.656 1.652.244 2.87.12 3.178.77.838 1.234 1.908 1.234 3.222 0 4.618-2.82 5.632-5.502 5.93.433.372.824 1.107.824 2.228 0 1.608-.015 2.898-.015 3.292 0 .32.192.694.799.576C20.565 21.798 24 17.303 24 12c0-6.627-5.373-12-12-12z"/>
</svg>
